<?xml version="1.0" encoding="UTF-8"?>
<svg id="Layer_2" data-name="Layer 2" xmlns="http://www.w3.org/2000/svg" viewBox="0 0 724.43 90.25">
  <defs>
    <style>
      .cls-1, .cls-2, .cls-3, .cls-4 {
        fill-rule: evenodd;
      }

      .cls-1, .cls-3, .cls-5, .cls-4, .cls-6 {
        stroke-width: 0px;
      }

      .cls-1, .cls-5 {
        fill: #fff;
      }

      .cls-2 {
        stroke: #fff;
        stroke-miterlimit: 10;
        stroke-width: .5px;
      }

      .cls-2, .cls-3 {
        fill: #1a315c;
      }

      .cls-4 {
        fill: #ffca05;
      }

      .cls-6 {
        fill: #a5a6a9;
      }
    </style>
  </defs>
  <g id="Layer_3" data-name="Layer 3">
    <g>
      <g>
        <path class="cls-1" d="M37.09,87.79c9.14-3.81,15.39-6.71,19.65-8.97,6.37-3.4,11.81-7.54,14.72-14.44,1.7-4.03,2.57-8.89,2.47-14.72-.06-13.69-.12-27.37-.18-41.06C53.76-2.53,20.42-2.53.44,8.6c-.06,13.69-.12,27.37-.18,41.06-.11,5.83.77,10.69,2.47,14.72,2.91,6.9,8.34,11.04,14.72,14.44,4.25,2.26,10.5,5.16,19.65,8.97"/>
        <path class="cls-2" d="M37.09,87.79c9.14-3.81,15.39-6.71,19.65-8.97,6.37-3.4,11.81-7.54,14.72-14.44,1.7-4.03,2.57-8.89,2.47-14.72-.06-13.69-.12-27.37-.18-41.06C53.76-2.53,20.42-2.53.44,8.6c-.06,13.69-.12,27.37-.18,41.06-.11,5.83.77,10.69,2.47,14.72,2.91,6.9,8.34,11.04,14.72,14.44,4.25,2.26,10.5,5.16,19.65,8.97"/>
        <path class="cls-4" d="M37.09,84.73c6.15-2.57,12.46-5.28,18.32-8.41,5.8-3.09,10.82-6.81,13.45-13.04,1.79-4.25,2.33-8.99,2.24-13.57v-.04l-.15-22.75c-20.66-4.14-54.85-1.09-67.8,17.36l-.07,5.39v.04c-.08,4.58.45,9.32,2.24,13.57,2.63,6.24,7.64,9.96,13.44,13.04,5.86,3.12,12.17,5.84,18.32,8.41"/>
        <path class="cls-1" d="M47.84,48.71c-3.53,1.64-4.55,6.74-4.31,10.34.09,1.39.25,2.8-.33,4.1-1.68,3.77-7.46,1.48-6.22-3.77,1.26-5.32,3.9-10.1,3.9-16.36,0-5.16-2.05-9.76-6.23-13.91,1.29,4.53-.88,6.92-3.34,9.66-1.35,1.49-2.69,2.96-3.35,4.91-.89,2.67-.62,5.66,1.38,8.31-.22-1.67-.26-3.25.02-4.65.85-4.12,6.2-6.02,7.5-9.63,1.39,2.27.96,5.57-.25,8.66-2.24,4.75-6.86,11.21-5.66,16.72.73,3.36,2.38,5.71,5.47,6.99,3.81,1.57,8.57-.02,10.41-3.82.9-1.88.96-3.98.38-6.28-2.04-7.04-.75-9.23.64-11.27"/>
        <path class="cls-6" d="M46.98,49.55c-.11.08-.22.17-.32.26-.38.34-.72.73-1.02,1.16-1.55,2.24-2.02,5.53-1.85,8.07l.02.31c.09,1.32.19,2.66-.38,3.92-.55,1.23-1.51,1.86-2.54,2-.55.07-1.14,0-1.68-.21-.54-.21-1.06-.55-1.48-1.01-.96-1.03-1.51-2.66-1.02-4.71.42-1.78,1-3.5,1.58-5.24,1.15-3.44,2.32-6.93,2.32-11.06,0-2.54-.5-4.94-1.52-7.22-.91-2.02-2.22-3.95-3.95-5.8.78,4.05-1.28,6.34-3.61,8.93l-.02.02-.11.13c-1.29,1.43-2.56,2.84-3.18,4.69h0c-.12.37-.22.74-.29,1.12-.07.38-.13.75-.15,1.13-.11,1.64.24,3.32,1.18,4.91-.04-.46-.06-.92-.06-1.37,0-.8.06-1.56.21-2.28.47-2.31,2.28-3.92,4.05-5.5,1.45-1.3,2.88-2.57,3.46-4.16l.19-.52.3.47h0s0,.01,0,.01c.21.34.37.69.5,1.06.13.37.23.76.29,1.16.33,2.03-.14,4.41-1.02,6.67h0s0,.02,0,.02h0c-.49,1.03-1.08,2.13-1.7,3.28-2.24,4.17-4.86,9.03-3.94,13.26.36,1.64.94,3.04,1.8,4.17.86,1.13,2.01,2.01,3.5,2.62h0s0,0,0,0c.51.21,1.05.36,1.59.46.55.09,1.1.13,1.64.12,2.81-.09,5.55-1.62,6.82-4.27h0c.43-.9.66-1.86.72-2.88.05-1.02-.07-2.09-.36-3.21-1.03-3.56-1.22-5.91-.97-7.63.17-1.21.56-2.11,1.02-2.89M47.7,48.48h.02s.34.39.34.39c-.68.99-1.33,2.02-1.56,3.65-.23,1.65-.05,3.92.96,7.4h0c.3,1.18.44,2.31.38,3.38-.06,1.08-.31,2.11-.77,3.08h0c-1.36,2.84-4.29,4.48-7.3,4.57-.58.02-1.17-.02-1.75-.12-.58-.1-1.15-.27-1.7-.5h0c-1.59-.66-2.81-1.59-3.73-2.8-.91-1.2-1.53-2.67-1.9-4.38-.96-4.42,1.71-9.38,3.99-13.63.62-1.15,1.21-2.24,1.68-3.25.85-2.17,1.31-4.45.99-6.37-.06-.37-.15-.73-.27-1.07-.06-.17-.12-.33-.2-.49-.71,1.47-2.04,2.65-3.38,3.85-1.7,1.52-3.44,3.07-3.88,5.21-.14.68-.2,1.41-.2,2.17,0,.76.07,1.57.18,2.39l-.48.2c-1.48-1.96-2.04-4.1-1.89-6.17.03-.41.08-.81.16-1.2.08-.39.18-.78.31-1.17v-.02c.66-1.96,1.97-3.41,3.29-4.88l.11-.13.02-.02c2.4-2.67,4.51-5.01,3.26-9.39l.45-.27c2.11,2.1,3.69,4.32,4.74,6.67,1.05,2.35,1.57,4.82,1.57,7.44,0,4.22-1.19,7.75-2.35,11.23-.58,1.72-1.15,3.42-1.56,5.19-.44,1.85.04,3.31.89,4.22.37.4.81.69,1.28.87.46.18.95.25,1.42.18.85-.11,1.65-.65,2.11-1.68.51-1.14.42-2.41.33-3.67h0s-.02-.31-.02-.31c-.18-2.63.31-6.06,1.94-8.41.32-.47.69-.89,1.1-1.26.42-.37.88-.68,1.4-.93Z"/>
        <path class="cls-3" d="M37.85,73.74c-.08.22-.03.5.19.69.26.22.59.19.91.2,3.27.09,5.97-.91,8.1-3.01.3-.33.25-.76-.07-.73-2.41,1.74-5.13,2.71-8.02,2.5-.33-.02-.95-.12-1.11.35M36.84,73.45c.27.06.45.3.4.54-.05.24-.31.39-.57.34-.27-.06-.45-.3-.4-.53.05-.24.3-.39.57-.34ZM35.64,73.23c.13.03.22.14.2.26-.02.12-.15.19-.28.17-.13-.03-.22-.15-.19-.26.02-.12.15-.19.28-.16ZM31.67,67.87c3.65,7.48,19.12,4.62,17.35-5.73,1.24.43,1.92,1.61,2.08,3.36.19,2.01-.37,3.92-.61,5.89-.38,3.13-.34,6.05.13,9.63-1.01.65-2.24,1.22-3.54,1.66-.37-1.48-.79-3.02-1.15-4.47-.3.11-.64.2-.96.25.37,1.51.77,3.02,1.15,4.52-.29.08-.57.16-.86.22-.55-1.34-1.12-2.73-1.67-4.06-.41-.02-.97-.05-1.35-.11.64,1.43,1.31,2.94,1.96,4.39-.43.07-.86.13-1.27.17-.77-1.46-1.57-3-2.34-4.46-.42-.02-.83-.07-1.23-.12.85,1.52,1.74,3.11,2.59,4.63h.07c-.61.02-1.18-.02-1.72-.11l-5.78-8.2c3.31,2.92,10.25,3.01,13.42-.36.91-.76.29-2.39-1.28-1.09-1.3,1.07-3.02,1.76-4.77,2.05-2.7.44-5.52-.06-7.77-1.67-1.83-1.31-3.15-3.39-2.44-6.39Z"/>
        <path class="cls-5" d="M53.74,12.63l-2.34-4.63c-.13-.25-.27-.42-.41-.5-.15-.08-.37-.13-.67-.14l.02-.47h3.34v.47h-.12c-.31,0-.54.03-.68.08-.14.05-.22.14-.22.25,0,.05.01.11.04.18.02.07.08.18.17.34l1.9,3.64,1.67-3.33c.05-.1.09-.21.12-.3.02-.09.04-.18.04-.27,0-.2-.08-.34-.25-.44-.17-.1-.42-.15-.77-.15v-.47h2.82v.47c-.49.06-.88.37-1.17.93-.03.06-.05.1-.06.13l-2.1,4.03v2.54c0,.46.07.76.21.91.14.15.42.22.85.22h.24v.48h-3.87v-.48h.24c.41,0,.68-.07.82-.21.13-.14.2-.45.2-.94v-2.34ZM49.42,6.89l.8,2.34-.42.16c-.68-.87-1.2-1.43-1.57-1.68-.37-.25-.77-.38-1.22-.38-.2,0-.34.03-.42.11-.08.07-.12.2-.12.4v7.13c0,.49.07.8.21.95.14.15.42.22.85.22h.24v.48h-3.88v-.48h.24c.42,0,.7-.07.83-.21.14-.14.21-.46.21-.95v-7.14c0-.19-.04-.33-.12-.4-.08-.07-.22-.11-.42-.11-.44,0-.85.13-1.22.38-.37.26-.89.82-1.57,1.68l-.42-.16.8-2.34h7.21ZM41.01,6.89v.49h-.26c-.43,0-.71.07-.84.21-.13.14-.2.48-.2,1v6.29c0,.53.07.87.21,1.03.14.15.43.23.85.23h.23v.48h-3.87v-.48h.16c.45,0,.74-.07.89-.21.14-.14.22-.47.22-.99v-6.34c0-.55-.07-.89-.2-1.02-.14-.13-.43-.19-.87-.19h-.19v-.49h3.87ZM33.88,7.54l-3.26,9.06h-.36l-3.31-8.96v6.7c0,.6.1,1.03.3,1.29.2.26.52.4.98.43v.53s-3.14,0-3.14,0v-.53c.47-.04.79-.18.99-.44.19-.26.29-.69.29-1.29v-5.64c0-.62-.07-1-.2-1.14-.13-.13-.4-.2-.81-.2h-.27v-.49h2.77l2.88,7.74,2.83-7.74h2.9v.49h-.24c-.43,0-.7.07-.83.21-.13.14-.19.5-.19,1.06v6.3c0,.5.06.82.2.97.13.14.41.21.82.21h.24v.48h-3.84v-.48h.22c.42,0,.71-.07.84-.21.13-.14.2-.47.2-.98v-7.4ZM15.89,16.6v-.48c.32-.02.57-.11.74-.27.17-.16.34-.48.5-.96l2.57-7.89,1.06-.35,2.86,8.53c.06.19.13.35.21.48.08.13.16.23.26.3.07.05.15.08.26.11.11.03.26.04.47.05v.48h-3.57v-.48h.09c.38,0,.64-.05.8-.14.15-.09.23-.25.23-.47,0-.04-.01-.1-.04-.18-.02-.08-.05-.18-.08-.29l-.61-1.82h-3.4l-.45,1.51c-.03.08-.05.16-.06.26-.02.09-.02.19-.02.28,0,.29.07.5.22.64.15.14.38.21.68.21h.13v.48h-2.84ZM18.44,12.61h2.97l-1.47-4.6-1.49,4.6Z"/>
        <path class="cls-5" d="M54.17,21.38l-1.1-2.19c-.06-.12-.13-.2-.19-.24-.07-.04-.17-.06-.31-.07v-.22h1.58v.22h-.06c-.15,0-.25.01-.32.04-.07.02-.1.07-.1.12,0,.02,0,.05.02.08.01.03.04.09.08.16l.9,1.72.79-1.57c.02-.05.04-.1.06-.14.01-.04.02-.09.02-.12,0-.1-.04-.16-.12-.21-.08-.05-.2-.07-.36-.07v-.22h1.32v.22c-.23.03-.41.17-.55.44-.01.03-.02.05-.03.06l-.99,1.91v1.2c0,.22.03.36.1.43.06.07.2.1.4.1h.11v.23h-1.82v-.23h.12c.19,0,.32-.03.39-.1.06-.07.09-.21.09-.44v-1.11ZM51.81,18.66l.38,1.11-.2.07c-.32-.41-.57-.68-.74-.8-.17-.12-.36-.18-.57-.18-.1,0-.16.02-.2.05-.04.03-.06.09-.06.19v3.37c0,.23.03.38.1.45.06.07.2.1.4.1h.11v.23h-1.83v-.23h.11c.2,0,.33-.03.39-.1.06-.07.1-.22.1-.45v-3.38c0-.09-.02-.15-.05-.19-.04-.03-.1-.05-.2-.05-.21,0-.4.06-.57.18-.17.12-.42.39-.74.8l-.2-.07.37-1.11h3.39ZM47.53,18.66v.23h-.12c-.2,0-.33.04-.4.1-.06.07-.09.23-.09.47v2.98c0,.25.03.41.1.48.07.07.2.11.4.11h.11v.23h-1.82v-.23h.08c.21,0,.35-.03.42-.1.07-.07.1-.22.1-.47v-3c0-.26-.03-.42-.1-.48-.06-.06-.2-.09-.41-.09h-.09v-.23h1.82ZM42.28,23.35l-.46-1.23.21-.08c.25.34.52.61.8.79.28.19.55.28.81.28.25,0,.46-.09.62-.25.17-.17.25-.38.25-.63s-.08-.46-.23-.61c-.15-.15-.47-.29-.95-.44-.03,0-.07-.02-.13-.04-.38-.1-.66-.24-.83-.41-.12-.13-.22-.27-.28-.42-.07-.16-.1-.32-.1-.5,0-.35.11-.65.34-.88.23-.23.52-.35.87-.35.14,0,.28.02.45.08.16.05.26.07.3.07.06,0,.12,0,.19-.03.07-.02.15-.05.24-.1l.43,1.16-.18.1c-.25-.36-.49-.63-.73-.81-.24-.18-.47-.27-.7-.27s-.41.08-.56.23c-.15.15-.22.35-.22.58,0,.13.02.25.07.35.05.1.12.19.23.28.14.12.42.23.85.35.1.03.18.05.23.06.39.11.67.28.86.5.19.23.29.51.29.86,0,.38-.12.7-.37.96-.24.26-.54.39-.89.39-.2,0-.41-.04-.62-.11-.21-.07-.32-.11-.34-.11-.05,0-.11.02-.18.05-.07.03-.17.09-.29.16ZM38.57,20.79h.51c.4,0,.69-.07.87-.22.18-.15.27-.38.27-.71s-.08-.59-.25-.75c-.16-.16-.43-.24-.78-.24-.25,0-.41.03-.49.1-.08.06-.11.21-.11.44v1.37ZM40.26,23.26l-1.22-2.24h-.47v1.47c0,.22.03.37.1.44.07.07.2.1.39.1h.11v.23h-1.82v-.23h.1c.2,0,.33-.04.4-.1.06-.07.1-.23.1-.49v-3.01c0-.23-.03-.38-.1-.44-.06-.06-.2-.1-.41-.1h-.09v-.23h1.81c.57,0,.99.1,1.28.31.29.21.44.51.44.91,0,.3-.1.55-.3.72-.2.18-.51.31-.93.38l.83,1.48c.13.24.26.39.37.46.11.07.25.11.44.11h.05v.23h-1.08ZM32.8,23.26v-.23h.11c.2,0,.34-.04.4-.1.06-.07.1-.23.1-.48v-2.99c0-.25-.03-.41-.09-.48-.06-.06-.2-.09-.42-.09h-.09v-.23h3.18l.45,1.08-.18.07c-.28-.36-.53-.61-.76-.75-.23-.13-.51-.2-.83-.2-.26,0-.43.04-.52.1-.09.07-.13.21-.13.42v1.35h.32c.29,0,.51-.06.65-.18.14-.11.23-.31.27-.58h.22v1.78h-.22c-.03-.28-.12-.48-.26-.6-.14-.12-.36-.18-.65-.18h-.32v1.57c0,.18.04.29.11.36.08.06.22.1.41.1.39,0,.74-.08,1.04-.25.3-.16.58-.42.82-.77l.18.06-.44,1.2h-3.35ZM30.07,23.42l-1.3-3.81s0-.02-.01-.03c-.15-.43-.38-.65-.68-.68v-.22h1.69v.22c-.19.01-.33.03-.4.07-.08.04-.12.09-.12.16,0,.03,0,.06.02.12.02.06.04.12.06.19l1.01,2.92.94-2.82c.02-.06.03-.11.04-.16,0-.05.01-.09.01-.13,0-.12-.04-.2-.11-.25-.07-.05-.2-.08-.38-.09v-.22h1.37v.22c-.15.01-.27.06-.35.13-.08.07-.15.21-.22.4l-1.38,4h-.17ZM27.57,18.66v.23h-.12c-.2,0-.34.04-.39.1-.06.07-.1.23-.1.47v2.98c0,.25.03.41.1.48.07.07.2.11.4.11h.11v.23h-1.82v-.23h.08c.21,0,.35-.03.42-.1.07-.07.11-.22.11-.47v-3c0-.26-.03-.42-.1-.48-.06-.06-.2-.09-.41-.09h-.09v-.23h1.82ZM21.81,18.66l2.49,3.57v-2.51c0-.3-.05-.51-.15-.63-.1-.12-.27-.18-.51-.19v-.25h1.6v.25c-.24,0-.41.07-.51.19-.1.12-.15.33-.15.63v3.63h-.22l-2.7-3.9v2.74c0,.3.05.51.15.63.1.12.27.18.51.19v.25h-1.6v-.25c.24,0,.41-.07.51-.19.1-.12.15-.33.15-.63v-3.03c-.07-.08-.16-.14-.27-.19-.11-.04-.23-.07-.38-.08v-.23s1.08,0,1.08,0ZM18.8,18.91v-.24h1.48v.24c-.22.01-.37.08-.46.2-.09.12-.13.33-.13.62v1.82c0,.62-.13,1.08-.39,1.37-.26.3-.66.44-1.19.44s-.93-.14-1.21-.41c-.27-.28-.41-.68-.41-1.23v-2.28c0-.22-.03-.37-.1-.44-.07-.07-.2-.11-.4-.11h-.11v-.22h1.83v.22h-.12c-.2,0-.33.04-.39.1-.06.07-.09.22-.09.47v2.36c0,.42.09.74.28.95.19.21.47.31.85.31s.68-.12.88-.36c.19-.24.29-.6.29-1.08v-1.92c0-.29-.05-.49-.13-.62-.09-.12-.24-.19-.46-.2Z"/>
      </g>
      <g>
        <path class="cls-5" d="M109.41,6.21l7.57,22.64c.54,1.62,1.62,5.08,2.75,6.28.71.79,1.66,1.08,2.7,1.21v1.37h-12.23v-1.37c1.41-.12,4.04.29,4.04-1.87,0-.67-.46-2.04-.71-2.66l-1.71-5.12h-10.61l-.54,1.58c-.42,1.21-1.66,4.45-1.66,5.66,0,2.12,2.21,2.41,3.91,2.41v1.37h-10.65v-1.37c3.58-.04,4.7-3.5,5.66-6.37l7.57-22.72,3.91-1.04ZM106.58,10.79l-4.7,13.98h9.36l-4.66-13.98Z"/>
        <path class="cls-5" d="M154.18,30.64c0,4.62.58,5.7,3.95,5.7v1.37h-12.03v-1.37c3.37,0,3.95-1.08,3.95-5.7V10.5h-.12l-10.32,27.21h-1.58l-10.24-27.38h-.12v20.31c0,4.62.54,5.7,3.87,5.7v1.37h-9.7v-1.37c3.37,0,3.91-1.08,3.91-5.7V14.33c0-4.58-.54-5.7-3.91-5.7v-1.37h8.99l9.11,24.22,9.15-24.22h9.03v1.37c-3.37,0-3.95,1.12-3.95,5.7v16.31Z"/>
        <path class="cls-5" d="M168.82,30.64c0,4.62.58,5.7,3.95,5.7v1.37h-11.98v-1.37c3.33,0,3.91-1.08,3.91-5.7V14.33c0-4.58-.58-5.7-3.91-5.7v-1.37h11.98v1.37c-3.37,0-3.95,1.12-3.95,5.7v16.31Z"/>
        <path class="cls-5" d="M188.62,30.64c0,4.62.54,5.7,4.37,5.7v1.37h-12.82v-1.37c3.79,0,4.33-1.08,4.33-5.7V13.25c0-2.08.54-4.62-2.29-4.62-4.24,0-7.7,3.25-9.49,6.78l-1.12-.46,3-7.7h24.01l2.91,7.7-1.04.46c-1.79-3.58-5.41-6.7-9.57-6.78-2.83,0-2.29,2.54-2.29,4.62v17.39Z"/>
        <path class="cls-5" d="M218.53,14.12c.58-.92,1.54-2.62,1.54-3.7,0-1.96-2.12-1.66-3.5-1.79v-1.37h10.32v1.37c-3.41-.21-4.58,2.54-5.95,5.08l-5.95,10.9v6.03c0,4.62.54,5.7,3.95,5.7v1.37h-12.07v-1.37c3.45,0,3.99-1.08,3.99-5.7v-4.66l-6.7-11.86c-1.29-2.33-2.75-5.66-5.95-5.49v-1.37h12.15v1.37c-1.08,0-3.62-.17-3.62,1.46,0,.67.87,2.12,1.21,2.75l5.87,10.07,4.7-8.78Z"/>
        <path class="cls-5" d="M244.37,30.64c0,4.62.58,5.7,3.95,5.7v1.37h-11.98v-1.37c3.33,0,3.91-1.08,3.91-5.7V14.33c0-4.58-.58-5.7-3.91-5.7v-1.37h11.98v1.37c-3.37,0-3.95,1.12-3.95,5.7v16.31Z"/>
        <path class="cls-5" d="M273.54,29.93v-15.6c0-4.58-.54-5.7-3.87-5.7v-1.37h9.65v1.37c-3.29,0-3.87,1.12-3.87,5.7v23.38h-1.41l-18.02-25.34v18.27c0,4.62.54,5.7,3.87,5.7v1.37h-9.7v-1.37c3.33,0,3.91-1.08,3.91-5.7V14.33c0-4.58-.58-5.7-3.91-5.7v-1.37h7.24l16.1,22.68Z"/>
        <path class="cls-5" d="M301.41,14.54l-1.21.58c-2.04-3.29-5.2-6.95-9.36-6.95-3.12,0-5.53,2.41-5.53,5.53,0,3.62,3.83,5.08,6.74,5.95,5.24,1.62,10.61,3.04,10.61,9.65,0,5.33-4.16,8.86-9.32,8.86-2.62,0-4.87-1.21-6.53-1.21-.92,0-1.91.58-2.54,1.21l-3.04-8.11,1.25-.58c2.54,3.37,6.28,7.32,10.61,7.32,3.2,0,6.16-2.16,6.16-5.62,0-9.65-17.02-4.74-17.02-15.89,0-5.24,3.66-8.49,8.82-8.49,1.33,0,2.08.25,3.33.71.96.29,1.33.5,2.25.5.71,0,1.54-.21,2.04-.79l2.75,7.32Z"/>
        <path class="cls-5" d="M318.13,30.64c0,4.62.54,5.7,4.37,5.7v1.37h-12.82v-1.37c3.79,0,4.33-1.08,4.33-5.7V13.25c0-2.08.54-4.62-2.29-4.62-4.24,0-7.7,3.25-9.49,6.78l-1.12-.46,3-7.7h24.01l2.91,7.7-1.04.46c-1.79-3.58-5.41-6.7-9.57-6.78-2.83,0-2.29,2.54-2.29,4.62v17.39Z"/>
        <path class="cls-5" d="M338.02,30.64c0,4.62.58,5.7,3.95,5.7v1.37h-11.98v-1.37c3.33,0,3.91-1.08,3.91-5.7V14.33c0-4.58-.58-5.7-3.91-5.7v-1.37h11.98v1.37c-3.37,0-3.95,1.12-3.95,5.7v16.31Z"/>
        <path class="cls-5" d="M357.82,30.64c0,4.62.54,5.7,4.37,5.7v1.37h-12.82v-1.37c3.79,0,4.33-1.08,4.33-5.7V13.25c0-2.08.54-4.62-2.29-4.62-4.24,0-7.7,3.25-9.49,6.78l-1.12-.46,3-7.7h24.01l2.91,7.7-1.04.46c-1.79-3.58-5.41-6.7-9.57-6.78-2.83,0-2.29,2.54-2.29,4.62v17.39Z"/>
        <path class="cls-5" d="M392.56,14.33c0-4.58-.54-5.7-3.74-5.7v-1.37h9.53v1.37c-3.33,0-3.87,1.12-3.87,5.7v12.86c0,7.37-3.37,10.99-10.78,10.99-6.33,0-10.53-3.33-10.53-9.78v-14.06c0-4.58-.54-5.7-3.66-5.7v-1.37h11.78v1.37c-3.45,0-3.99,1.12-3.99,5.7v11.69c0,5.49,1.08,10.49,7.61,10.44,6.91.04,7.66-5.16,7.66-10.78v-11.36Z"/>
        <path class="cls-5" d="M413.95,30.64c0,4.62.54,5.7,4.37,5.7v1.37h-12.82v-1.37c3.79,0,4.33-1.08,4.33-5.7V13.25c0-2.08.54-4.62-2.29-4.62-4.24,0-7.7,3.25-9.49,6.78l-1.12-.46,3-7.7h24.01l2.91,7.7-1.04.46c-1.79-3.58-5.41-6.7-9.57-6.78-2.83,0-2.29,2.54-2.29,4.62v17.39Z"/>
        <path class="cls-5" d="M443.57,27.89h-1.21c.04-5.33-3.54-5.58-6.82-5.37h-1.71v9.61c0,3.37.46,4.2,4.24,4.2,6.78,0,7.99-1.71,12.15-6.95l1,.42-3.08,7.91h-22.3v-1.37c3.29,0,3.87-1.08,3.87-5.7V14.33c0-4.58-.58-5.7-3.87-5.7v-1.37h21.76l2.91,7.12-1.04.62c-3.66-4.87-5.03-6.37-11.15-6.37-4.24,0-4.49.67-4.49,4.74v7.78h1.71c3.91,0,6.57-.71,6.87-5.2h1.17v11.94Z"/>
        <path class="cls-5" d="M479.64,23.52c0,6.99-5.99,14.65-11.15,14.65-3.66,0-5.99-2.91-5.99-6.45,0-5.53,5.12-14.81,11.36-14.81,2.79,0,5.78,2.37,5.78,6.62ZM465.95,33.68c0,1.71.75,3.12,2.62,3.12,4.33,0,7.61-11.61,7.61-15.11,0-1.62-.58-3.41-2.5-3.41-4.45,0-7.74,11.9-7.74,15.4Z"/>
        <path class="cls-5" d="M494.41,17.78l-.58,2.29h-4.62l-1.37,5.7c-3.33,13.73-7.91,18.68-10.9,18.68-1.21,0-2.25-.67-2.25-1.96s1.12-1.96,2.25-1.96l1.62.08c1,0,1.62-.29,2.08-1.29.58-1.29,1-3.54,1.33-4.99l3.87-14.27h-3.54l.58-2.29h3.54c1.17-3.99,5.12-10.99,9.82-10.99,1.33,0,3,.92,3,2.46,0,1.17-1.17,1.87-2.21,1.87-1.21,0-2-1.21-2.95-1.21-2.5,0-3.62,5.95-4.24,7.86h4.58Z"/>
        <path class="cls-5" d="M112.57,70.03h-1.21c.04-5.33-3.54-5.58-6.82-5.37h-1.71v9.61c0,3.37.46,4.2,4.24,4.2,6.78,0,7.99-1.71,12.15-6.95l1,.42-3.08,7.91h-22.3v-1.37c3.29,0,3.87-1.08,3.87-5.7v-16.31c0-4.58-.58-5.7-3.87-5.7v-1.37h21.76l2.91,7.12-1.04.62c-3.66-4.87-5.03-6.37-11.15-6.37-4.24,0-4.49.67-4.49,4.74v7.78h1.71c3.91,0,6.57-.71,6.87-5.2h1.17v11.94Z"/>
        <path class="cls-5" d="M145.15,72.07v-15.6c0-4.58-.54-5.7-3.87-5.7v-1.37h9.65v1.37c-3.29,0-3.87,1.12-3.87,5.7v23.38h-1.41l-18.02-25.34v18.27c0,4.62.54,5.7,3.87,5.7v1.37h-9.7v-1.37c3.33,0,3.91-1.08,3.91-5.7v-16.31c0-4.58-.58-5.7-3.91-5.7v-1.37h7.24l16.1,22.68Z"/>
        <path class="cls-5" d="M178.76,56.55l-1.21.54c-2.08-3.33-5.24-6.78-9.53-6.78-7.24,0-9.36,9.65-9.36,15.4s3,13.23,9.65,13.23c4.74,0,6.08-3.04,6.08-7.32,0-3.62-1.21-3.99-4.62-3.99v-1.37h11.86v1.37c-3.58.12-3.58,2.29-3.58,5.33v6.16c-.54-.17-1.12-.33-1.75-.33-2.83,0-5.37,1.54-8.86,1.54-8.74,0-13.56-6.78-13.56-14.98,0-7.61,4.79-16.39,13.32-16.39,2.33,0,4.12.75,5.62.75,1.21,0,2.12-.42,3.16-.96l2.79,7.82Z"/>
        <path class="cls-5" d="M207.89,72.19l-2.87,7.66h-21.55v-1.37c3.41,0,3.95-1.08,3.95-5.7v-16.31c0-4.58-.54-5.7-3.95-5.7v-1.37h12.07v1.37c-3.45,0-3.99,1.12-3.99,5.7v17.14c0,3.66.33,4.87,4.45,4.87,5.58,0,8.03-2.12,10.78-6.78l1.12.5Z"/>
        <path class="cls-5" d="M215.08,72.77c0,4.62.58,5.7,3.95,5.7v1.37h-11.98v-1.37c3.33,0,3.91-1.08,3.91-5.7v-16.31c0-4.58-.58-5.7-3.91-5.7v-1.37h11.98v1.37c-3.37,0-3.95,1.12-3.95,5.7v16.31Z"/>
        <path class="cls-5" d="M240.75,56.67l-1.21.58c-2.04-3.29-5.2-6.95-9.36-6.95-3.12,0-5.53,2.41-5.53,5.53,0,3.62,3.83,5.08,6.74,5.95,5.24,1.62,10.61,3.04,10.61,9.65,0,5.33-4.16,8.86-9.32,8.86-2.62,0-4.87-1.21-6.53-1.21-.92,0-1.91.58-2.54,1.21l-3.04-8.11,1.25-.58c2.54,3.37,6.28,7.32,10.61,7.32,3.2,0,6.16-2.16,6.16-5.62,0-9.65-17.02-4.74-17.02-15.89,0-5.24,3.66-8.49,8.82-8.49,1.33,0,2.08.25,3.33.71.96.29,1.33.5,2.25.5.71,0,1.54-.21,2.04-.79l2.75,7.32Z"/>
        <path class="cls-5" d="M264.42,63.25v-6.78c0-4.58-.54-5.7-3.83-5.7v-1.37h11.9v1.37c-3.41,0-3.95,1.12-3.95,5.7v16.31c0,4.62.54,5.7,3.95,5.7v1.37h-11.9v-1.37c3.29,0,3.83-1.08,3.83-5.7v-7.61h-12.94v7.61c0,4.62.58,5.7,3.87,5.7v1.37h-11.86v-1.37c3.29,0,3.87-1.08,3.87-5.7v-16.31c0-4.58-.58-5.7-3.87-5.7v-1.37h11.86v1.37c-3.29,0-3.87,1.12-3.87,5.7v6.78h12.94Z"/>
        <path class="cls-5" d="M304.7,56.67l-1.21.58c-2.04-3.29-5.2-6.95-9.36-6.95-3.12,0-5.53,2.41-5.53,5.53,0,3.62,3.83,5.08,6.74,5.95,5.24,1.62,10.61,3.04,10.61,9.65,0,5.33-4.16,8.86-9.32,8.86-2.62,0-4.87-1.21-6.53-1.21-.92,0-1.91.58-2.54,1.21l-3.04-8.11,1.25-.58c2.54,3.37,6.28,7.32,10.61,7.32,3.2,0,6.16-2.16,6.16-5.62,0-9.65-17.02-4.74-17.02-15.89,0-5.24,3.66-8.49,8.82-8.49,1.33,0,2.08.25,3.33.71.96.29,1.33.5,2.25.5.71,0,1.54-.21,2.04-.79l2.75,7.32Z"/>
        <path class="cls-5" d="M321.42,72.77c0,4.62.54,5.7,4.37,5.7v1.37h-12.82v-1.37c3.79,0,4.33-1.08,4.33-5.7v-17.39c0-2.08.54-4.62-2.29-4.62-4.24,0-7.7,3.25-9.49,6.78l-1.12-.46,3-7.7h24.01l2.91,7.7-1.04.46c-1.79-3.58-5.41-6.7-9.57-6.78-2.83,0-2.29,2.54-2.29,4.62v17.39Z"/>
        <path class="cls-5" d="M356.16,56.46c0-4.58-.54-5.7-3.74-5.7v-1.37h9.53v1.37c-3.33,0-3.87,1.12-3.87,5.7v12.86c0,7.37-3.37,10.99-10.78,10.99-6.33,0-10.53-3.33-10.53-9.78v-14.06c0-4.58-.54-5.7-3.66-5.7v-1.37h11.78v1.37c-3.45,0-3.99,1.12-3.99,5.7v11.69c0,5.49,1.08,10.49,7.61,10.44,6.91.04,7.66-5.16,7.66-10.78v-11.36Z"/>
        <path class="cls-5" d="M363.52,79.85v-1.37c3.33,0,3.91-1.08,3.91-5.7v-16.31c0-4.58-.58-5.7-3.91-5.7v-1.37h11.4c3.5,0,7.12.21,11.03,3,3.91,2.79,5.58,7.07,5.58,11.78,0,10.15-6.87,15.69-16.6,15.69h-11.4ZM371.55,72.82c-.04,4.45.62,5.66,4.04,5.66,8.41,0,11.15-6.7,11.15-14.15s-2.66-13.57-11.15-13.57c-3.58,0-4.08.92-4.04,5.28v16.77Z"/>
        <path class="cls-5" d="M402.92,72.77c0,4.62.58,5.7,3.95,5.7v1.37h-11.98v-1.37c3.33,0,3.91-1.08,3.91-5.7v-16.31c0-4.58-.58-5.7-3.91-5.7v-1.37h11.98v1.37c-3.37,0-3.95,1.12-3.95,5.7v16.31Z"/>
        <path class="cls-5" d="M426.47,70.03h-1.21c.04-5.33-3.54-5.58-6.82-5.37h-1.71v9.61c0,3.37.46,4.2,4.24,4.2,6.78,0,7.99-1.71,12.15-6.95l1,.42-3.08,7.91h-22.3v-1.37c3.29,0,3.87-1.08,3.87-5.7v-16.31c0-4.58-.58-5.7-3.87-5.7v-1.37h21.76l2.91,7.12-1.04.62c-3.66-4.87-5.03-6.37-11.15-6.37-4.24,0-4.49.67-4.49,4.74v7.78h1.71c3.91,0,6.57-.71,6.87-5.2h1.17v11.94Z"/>
        <path class="cls-5" d="M455.55,56.67l-1.21.58c-2.04-3.29-5.2-6.95-9.36-6.95-3.12,0-5.53,2.41-5.53,5.53,0,3.62,3.83,5.08,6.74,5.95,5.24,1.62,10.61,3.04,10.61,9.65,0,5.33-4.16,8.86-9.32,8.86-2.62,0-4.87-1.21-6.53-1.21-.92,0-1.91.58-2.54,1.21l-3.04-8.11,1.25-.58c2.54,3.37,6.28,7.32,10.61,7.32,3.2,0,6.16-2.16,6.16-5.62,0-9.65-17.02-4.74-17.02-15.89,0-5.24,3.66-8.49,8.82-8.49,1.33,0,2.08.25,3.33.71.96.29,1.33.5,2.25.5.71,0,1.54-.21,2.04-.79l2.75,7.32Z"/>
        <path class="cls-5" d="M476.56,62.54c-.92-1.87-1.83-3.95-1.83-6.12,0-4.41,3.16-7.49,7.57-7.49,3.08,0,6.49,1.91,6.49,5.24,0,3.95-5.03,6.37-8.07,7.91,2.37,4.24,4.79,8.57,7.91,12.23,1.71-2.37,2.95-5.33,2.95-8.28,0-2.46-1.87-2.79-3.95-2.79v-1.21h10.74v1.21c-3.29.08-3.54,1.08-4.58,3.79-1.12,2.87-2.33,5.78-4.24,8.28.87,1.12,2.79,2.33,4.29,2.33,1.75,0,3.29-1.04,4.66-2l.67.79c-1.91,2.04-4.66,3.87-7.53,3.87-2.29,0-3.54-1-5.2-2.41-2.58,1.5-5.04,2.41-8.11,2.41-4.62,0-10.07-2.83-10.07-8.03,0-4.16,3.5-6.74,6.66-8.78l1.66-.96ZM472.6,70.07c0,4.41,3.62,8.45,8.07,8.45,1.75,0,3.62-.46,4.91-1.62-3.29-4-6.03-8.45-8.45-13.11-2.66,1-4.54,3.33-4.54,6.28ZM485.71,54.84c0-2.29-1.37-4.54-3.91-4.54-2.33,0-3.66,2.08-3.66,4.2,0,2,.96,4.62,1.91,6.37,2.66-1.17,5.66-2.79,5.66-6.03Z"/>
        <path class="cls-5" d="M518.7,64.99v7.78c0,4.62.58,5.7,3.87,5.7v1.37h-11.86v-1.37c3.29,0,3.87-1.08,3.87-5.7v-16.23c0-3.37.21-5.78-3.87-5.78v-1.37h12.23c4.87,0,11.11,1.66,11.11,7.61,0,4.25-3.83,7.12-7.82,7.62l5.58,9.95c1.54,2.66,1.91,4.04,5.28,3.91v1.37h-6.91l-8.53-14.86h-2.95ZM518.7,63.62h2.16c4.2.29,8.82-1.83,8.82-6.62,0-4.12-3.66-6.24-7.41-6.24-3.5,0-3.58,1.42-3.58,4.54v8.32Z"/>
        <path class="cls-5" d="M554.32,70.03h-1.21c.04-5.33-3.54-5.58-6.82-5.37h-1.71v9.61c0,3.37.46,4.2,4.24,4.2,6.78,0,7.99-1.71,12.15-6.95l1,.42-3.08,7.91h-22.3v-1.37c3.29,0,3.87-1.08,3.87-5.7v-16.31c0-4.58-.58-5.7-3.87-5.7v-1.37h21.76l2.91,7.12-1.04.62c-3.66-4.87-5.03-6.37-11.15-6.37-4.24,0-4.49.67-4.49,4.74v7.78h1.71c3.91,0,6.57-.71,6.87-5.2h1.17v11.94Z"/>
        <path class="cls-5" d="M583.4,56.67l-1.21.58c-2.04-3.29-5.2-6.95-9.36-6.95-3.12,0-5.53,2.41-5.53,5.53,0,3.62,3.83,5.08,6.74,5.95,5.24,1.62,10.61,3.04,10.61,9.65,0,5.33-4.16,8.86-9.32,8.86-2.62,0-4.87-1.21-6.53-1.21-.92,0-1.91.58-2.54,1.21l-3.04-8.11,1.25-.58c2.54,3.37,6.28,7.32,10.61,7.32,3.2,0,6.16-2.16,6.16-5.62,0-9.65-17.02-4.74-17.02-15.89,0-5.24,3.66-8.49,8.82-8.49,1.33,0,2.08.25,3.33.71.96.29,1.33.5,2.25.5.71,0,1.54-.21,2.04-.79l2.75,7.32Z"/>
        <path class="cls-5" d="M603.87,70.03h-1.21c.04-5.33-3.54-5.58-6.82-5.37h-1.71v9.61c0,3.37.46,4.2,4.24,4.2,6.78,0,7.99-1.71,12.15-6.95l1,.42-3.08,7.91h-22.3v-1.37c3.29,0,3.87-1.08,3.87-5.7v-16.31c0-4.58-.58-5.7-3.87-5.7v-1.37h21.76l2.91,7.12-1.04.62c-3.66-4.87-5.03-6.37-11.15-6.37-4.24,0-4.49.67-4.49,4.74v7.78h1.71c3.91,0,6.57-.71,6.87-5.2h1.17v11.94Z"/>
        <path class="cls-5" d="M627.66,48.35l7.57,22.64c.54,1.62,1.62,5.08,2.75,6.28.71.79,1.66,1.08,2.7,1.21v1.37h-12.23v-1.37c1.41-.12,4.04.29,4.04-1.87,0-.67-.46-2.04-.71-2.66l-1.71-5.12h-10.61l-.54,1.58c-.42,1.21-1.66,4.45-1.66,5.66,0,2.12,2.21,2.41,3.91,2.41v1.37h-10.65v-1.37c3.58-.04,4.7-3.5,5.66-6.37l7.57-22.72,3.91-1.04ZM624.83,52.93l-4.7,13.98h9.36l-4.66-13.98Z"/>
        <path class="cls-5" d="M648.05,64.99v7.78c0,4.62.58,5.7,3.87,5.7v1.37h-11.86v-1.37c3.29,0,3.87-1.08,3.87-5.7v-16.23c0-3.37.21-5.78-3.87-5.78v-1.37h12.23c4.87,0,11.11,1.66,11.11,7.61,0,4.25-3.83,7.12-7.82,7.62l5.58,9.95c1.54,2.66,1.91,4.04,5.28,3.91v1.37h-6.91l-8.53-14.86h-2.95ZM648.05,63.62h2.16c4.2.29,8.82-1.83,8.82-6.62,0-4.12-3.66-6.24-7.41-6.24-3.5,0-3.58,1.42-3.58,4.54v8.32Z"/>
        <path class="cls-5" d="M691.36,56.88l-1.04.5c-2.25-2.95-6.28-6.74-10.19-6.74-6.91,0-8.86,7.45-8.86,13.02,0,5.99,3.08,14.11,10.19,14.11,4.45,0,7.41-3.08,9.53-6.66l.87.5c-2.25,4.91-6.41,8.7-11.98,8.7-8.2,0-13.4-6.78-13.4-14.56,0-3.79,1.25-7.57,3.37-10.74,2.16-3.33,5.58-6.08,9.78-6.08,1.46,0,2.54.33,3.45.67.96.33,1.79.62,2.66.62,1.08,0,1.91-.42,2.83-.87l2.79,7.53Z"/>
        <path class="cls-5" d="M714.95,63.25v-6.78c0-4.58-.54-5.7-3.83-5.7v-1.37h11.9v1.37c-3.41,0-3.95,1.12-3.95,5.7v16.31c0,4.62.54,5.7,3.95,5.7v1.37h-11.9v-1.37c3.29,0,3.83-1.08,3.83-5.7v-7.61h-12.94v7.61c0,4.62.58,5.7,3.87,5.7v1.37h-11.86v-1.37c3.29,0,3.87-1.08,3.87-5.7v-16.31c0-4.58-.58-5.7-3.87-5.7v-1.37h11.86v1.37c-3.29,0-3.87,1.12-3.87,5.7v6.78h12.94Z"/>
      </g>
    </g>
  </g>
</svg>